<mxfile host="app.diagrams.net" modified="2022-09-15T09:23:00.331Z" agent="5.0 (Windows NT 10.0; Win64; x64) AppleWebKit/537.36 (KHTML, like Gecko) Chrome/105.0.0.0 Safari/537.36" etag="o7cyJnEmAN0L-PYaoL98" version="20.3.0" type="github">
  <diagram id="8IxGTgm18ZwlXL1iowDx" name="第 1 页">
    <mxGraphModel dx="1422" dy="762" grid="1" gridSize="10" guides="1" tooltips="1" connect="1" arrows="1" fold="1" page="1" pageScale="1" pageWidth="827" pageHeight="1169" math="0" shadow="0">
      <root>
        <mxCell id="0" />
        <mxCell id="1" parent="0" />
        <mxCell id="Nu5rQ-vg_1bx4Dky8eYE-14" style="edgeStyle=orthogonalEdgeStyle;rounded=0;orthogonalLoop=1;jettySize=auto;html=1;entryX=0.435;entryY=1.017;entryDx=0;entryDy=0;entryPerimeter=0;" parent="1" source="Nu5rQ-vg_1bx4Dky8eYE-1" target="Nu5rQ-vg_1bx4Dky8eYE-3" edge="1">
          <mxGeometry relative="1" as="geometry" />
        </mxCell>
        <mxCell id="Nu5rQ-vg_1bx4Dky8eYE-15" style="edgeStyle=orthogonalEdgeStyle;rounded=0;orthogonalLoop=1;jettySize=auto;html=1;startArrow=none;" parent="1" source="QZ877cHgiQYMGY4JspwA-2" target="Nu5rQ-vg_1bx4Dky8eYE-4" edge="1">
          <mxGeometry relative="1" as="geometry" />
        </mxCell>
        <mxCell id="Nu5rQ-vg_1bx4Dky8eYE-16" style="edgeStyle=orthogonalEdgeStyle;rounded=0;orthogonalLoop=1;jettySize=auto;html=1;entryX=0.5;entryY=1;entryDx=0;entryDy=0;" parent="1" source="Nu5rQ-vg_1bx4Dky8eYE-1" target="Nu5rQ-vg_1bx4Dky8eYE-5" edge="1">
          <mxGeometry relative="1" as="geometry" />
        </mxCell>
        <mxCell id="Nu5rQ-vg_1bx4Dky8eYE-1" value="定单每日日轻度汇总全量表" style="shape=parallelogram;html=1;strokeWidth=2;perimeter=parallelogramPerimeter;whiteSpace=wrap;rounded=1;arcSize=12;size=0.23;" parent="1" vertex="1">
          <mxGeometry x="335" y="600" width="210" height="60" as="geometry" />
        </mxCell>
        <mxCell id="Nu5rQ-vg_1bx4Dky8eYE-2" value="实例" style="text;html=1;strokeColor=none;fillColor=none;align=center;verticalAlign=middle;whiteSpace=wrap;rounded=0;" parent="1" vertex="1">
          <mxGeometry x="70" y="70" width="60" height="30" as="geometry" />
        </mxCell>
        <mxCell id="Nu5rQ-vg_1bx4Dky8eYE-3" value="定单周轻度汇总全量表" style="shape=parallelogram;html=1;strokeWidth=2;perimeter=parallelogramPerimeter;whiteSpace=wrap;rounded=1;arcSize=12;size=0.23;" parent="1" vertex="1">
          <mxGeometry x="100" y="440" width="200" height="60" as="geometry" />
        </mxCell>
        <mxCell id="Nu5rQ-vg_1bx4Dky8eYE-4" value="定单月轻度汇总全量表" style="shape=parallelogram;html=1;strokeWidth=2;perimeter=parallelogramPerimeter;whiteSpace=wrap;rounded=1;arcSize=12;size=0.23;" parent="1" vertex="1">
          <mxGeometry x="340" y="440" width="200" height="60" as="geometry" />
        </mxCell>
        <mxCell id="Nu5rQ-vg_1bx4Dky8eYE-5" value="定单年轻度汇总全量表" style="shape=parallelogram;html=1;strokeWidth=2;perimeter=parallelogramPerimeter;whiteSpace=wrap;rounded=1;arcSize=12;size=0.23;" parent="1" vertex="1">
          <mxGeometry x="587" y="440" width="200" height="60" as="geometry" />
        </mxCell>
        <mxCell id="Nu5rQ-vg_1bx4Dky8eYE-17" value="定单全量宽表" style="shape=parallelogram;html=1;strokeWidth=2;perimeter=parallelogramPerimeter;whiteSpace=wrap;rounded=1;arcSize=12;size=0.23;" parent="1" vertex="1">
          <mxGeometry x="340" y="200" width="210" height="60" as="geometry" />
        </mxCell>
        <mxCell id="Nu5rQ-vg_1bx4Dky8eYE-18" value="" style="html=1;shadow=0;dashed=0;align=center;verticalAlign=middle;shape=mxgraph.arrows2.arrow;dy=0.6;dx=40;direction=north;notch=0;" parent="1" vertex="1">
          <mxGeometry x="410" y="270" width="70" height="130" as="geometry" />
        </mxCell>
        <mxCell id="QZ877cHgiQYMGY4JspwA-1" value="全量刷新" style="text;html=1;strokeColor=none;fillColor=none;align=center;verticalAlign=middle;whiteSpace=wrap;rounded=0;" vertex="1" parent="1">
          <mxGeometry x="170" y="540" width="60" height="30" as="geometry" />
        </mxCell>
        <mxCell id="QZ877cHgiQYMGY4JspwA-2" value="全量刷新" style="text;html=1;strokeColor=none;fillColor=none;align=center;verticalAlign=middle;whiteSpace=wrap;rounded=0;" vertex="1" parent="1">
          <mxGeometry x="410" y="540" width="60" height="30" as="geometry" />
        </mxCell>
        <mxCell id="QZ877cHgiQYMGY4JspwA-3" value="" style="edgeStyle=orthogonalEdgeStyle;rounded=0;orthogonalLoop=1;jettySize=auto;html=1;endArrow=none;" edge="1" parent="1" source="Nu5rQ-vg_1bx4Dky8eYE-1" target="QZ877cHgiQYMGY4JspwA-2">
          <mxGeometry relative="1" as="geometry">
            <mxPoint x="440" y="600" as="sourcePoint" />
            <mxPoint x="440" y="500" as="targetPoint" />
          </mxGeometry>
        </mxCell>
        <mxCell id="QZ877cHgiQYMGY4JspwA-4" value="全量刷新" style="text;html=1;strokeColor=none;fillColor=none;align=center;verticalAlign=middle;whiteSpace=wrap;rounded=0;" vertex="1" parent="1">
          <mxGeometry x="657" y="540" width="60" height="30" as="geometry" />
        </mxCell>
        <mxCell id="QZ877cHgiQYMGY4JspwA-5" value="1.union 合并&lt;br&gt;2.按主键聚合指标&lt;br&gt;3.维度规范约束" style="text;html=1;strokeColor=none;fillColor=none;align=center;verticalAlign=middle;whiteSpace=wrap;rounded=0;" vertex="1" parent="1">
          <mxGeometry x="460" y="330" width="173" height="55" as="geometry" />
        </mxCell>
      </root>
    </mxGraphModel>
  </diagram>
</mxfile>
